PathFileType	4	(X/Y/Z)	C:/Users/opensim2020/Desktop/walking_exp_matlab/subject03_walking12_straight_03.trc	
DataRate	CameraRate	NumFrames	NumMarkers	Units	OrigDataRate	OrigDataStartFrame	OrigNumFrames	
100.00	100.00	6	48	mm	100.00	1728	185	
Frame#	Time	LFHD			RFHD			LBHD			RBHD			C7			T10			CLAV			STRN			RBAK			LSHO			LUPA			LELB			LFRM			LWRA			LWRB			LFIN			RSHO			RUPA			RELB			RFRM			RWRA			RWRB			RFIN			LASI			RASI			LPSI			RPSI			LTHI			LKNE			LTIB			LANK			LHEE			LTOE			RTHI			RKNE			RTIB			RANK			RHEE			RTOE			*39			*40			*41			*42			*43			*44			*45			*46			*47			
		X1	Y1	Z1	X2	Y2	Z2	X3	Y3	Z3	X4	Y4	Z4	X5	Y5	Z5	X6	Y6	Z6	X7	Y7	Z7	X8	Y8	Z8	X9	Y9	Z9	X10	Y10	Z10	X11	Y11	Z11	X12	Y12	Z12	X13	Y13	Z13	X14	Y14	Z14	X15	Y15	Z15	X16	Y16	Z16	X17	Y17	Z17	X18	Y18	Z18	X19	Y19	Z19	X20	Y20	Z20	X21	Y21	Z21	X22	Y22	Z22	X23	Y23	Z23	X24	Y24	Z24	X25	Y25	Z25	X26	Y26	Z26	X27	Y27	Z27	X28	Y28	Z28	X29	Y29	Z29	X30	Y30	Z30	X31	Y31	Z31	X32	Y32	Z32	X33	Y33	Z33	X34	Y34	Z34	X35	Y35	Z35	X36	Y36	Z36	X37	Y37	Z37	X38	Y38	Z38	X39	Y39	Z39	X40	Y40	Z40	X41	Y41	Z41	X42	Y42	Z42	X43	Y43	Z43	X44	Y44	Z44	X45	Y45	Z45	X46	Y46	Z46	X47	Y47	Z47	X48	Y48	Z48	

70	0.690	-1031.53931	-269.59763	1636.54541	-900.53015	-293.79559	1627.59570	-1054.77844	-382.88589	1567.66895	-925.46368	-402.27005	1558.93298	-990.84906	-400.57159	1415.30164	-987.06604	-441.94400	1108.03857	-995.43195	-276.57813	1342.39746	-1004.04193	-235.49817	1174.71558	-887.75879	-445.58115	1244.21057	-1148.86255	-333.57867	1381.13293	-1221.25146	-362.66055	1185.32861	-1233.90002	-363.75626	1062.01257	-1235.64001	-336.57587	934.55243	-1207.08923	-311.07953	817.63434	-1254.04309	-340.54242	821.47675	-1248.46924	-317.34540	741.29578	-834.36230	-314.09396	1367.02051	-759.48773	-294.69046	1147.64917	-746.44421	-269.46548	1037.55554	-746.05902	-237.10493	904.34467	-785.12549	-199.32295	812.73474	-737.95062	-225.08565	804.94415	-751.03241	-195.79187	736.10541	-1110.03406	-290.07925	938.21942	-875.66791	-281.49213	937.32526	-1058.10352	-450.57816	962.62769	-908.76654	-441.12823	976.50677	-1159.94592	-270.20059	644.12817	-1131.46021	-201.55341	478.84338	-1121.15674	-289.73596	300.44055	-1072.72974	-364.57666	107.73422	-1031.38391	-413.02975	85.17743	-1057.17517	-236.30956	37.50939	-834.71613	-360.43408	645.08124	-873.15753	-371.45993	467.30011	-867.02618	-439.67526	286.17276	-914.15271	-498.57645	76.95689	-962.02301	-547.51465	49.02950	-931.48901	-360.47662	31.88078	-993.07562	-371.30362	1674.07727																								 
71	0.700	-1032.74133	-256.10883	1635.21423	-901.64520	-280.52908	1626.68787	-1055.97864	-369.59604	1566.59387	-926.62762	-389.07294	1558.08423	-991.85150	-387.59045	1414.18066	-987.34137	-429.09363	1106.89392	-996.12439	-263.64432	1341.17371	-1004.31213	-222.64359	1173.46411	-888.15601	-432.70480	1243.21021	-1149.77307	-320.59375	1379.54468	-1221.86279	-351.37103	1183.73633	-1234.74805	-354.73389	1060.55933	-1237.52686	-332.03629	932.13013	-1210.16748	-310.83893	814.04016	-1256.73999	-340.51611	819.33026	-1252.25208	-320.36542	738.43896	-835.10474	-301.39487	1366.13782	-759.23267	-280.17163	1147.42578	-745.69818	-253.27979	1037.83215	-745.44043	-217.43347	905.52911	-784.55927	-176.72380	815.26147	-737.79077	-202.79485	806.50885	-750.72382	-171.38087	738.67841	-1109.93884	-276.65103	937.00604	-875.58429	-269.45050	935.96643	-1058.67651	-437.48492	961.19672	-909.25488	-428.67670	975.52759	-1161.03137	-253.24393	644.55255	-1131.49084	-183.85202	480.13251	-1122.53601	-261.17670	296.29053	-1075.19409	-323.88531	98.72248	-1034.64441	-371.10916	73.21904	-1058.11975	-191.23329	36.90886	-834.85675	-351.82907	644.35559	-873.10944	-365.66522	466.67203	-867.04828	-436.60040	286.52194	-914.19836	-498.16537	78.05586	-962.40552	-546.89417	50.34211	-931.37915	-360.37024	31.80397	-994.33923	-357.93890	1672.95276																								 
72	0.710	-1033.96484	-242.59941	1633.74988	-902.93158	-267.19150	1625.40698	-1057.17358	-356.25888	1565.34509	-927.84094	-375.92975	1557.10254	-992.90393	-374.55615	1412.95911	-987.84753	-416.16220	1105.63623	-996.85010	-250.70180	1339.77612	-1004.49890	-209.74081	1172.12549	-888.79028	-419.92374	1242.13928	-1150.73914	-307.38116	1377.81116	-1222.57446	-339.80615	1181.99841	-1235.78088	-345.49716	1058.96387	-1239.37134	-327.22720	929.78778	-1213.16003	-310.47516	810.64069	-1259.62878	-340.26096	817.48456	-1255.80176	-323.27744	735.83527	-835.88153	-288.76810	1365.14587	-759.00696	-265.83640	1147.02844	-744.99695	-237.36670	1038.01038	-744.87628	-198.04774	906.72400	-783.94244	-154.33833	817.99902	-737.66913	-180.83817	808.05652	-750.48853	-147.14125	741.48981	-1109.92664	-263.15036	935.70251	-875.40417	-256.98532	934.46625	-1059.40149	-424.42441	959.58142	-909.83679	-416.45395	974.28711	-1161.43640	-237.40823	644.36523	-1131.10229	-166.77115	480.72055	-1124.24731	-232.94995	292.42331	-1077.84558	-283.12659	91.01380	-1037.87695	-329.42282	62.79283	-1058.86646	-146.02008	37.87438	-834.97833	-343.28345	643.62268	-872.95801	-359.65323	465.99158	-867.10059	-433.28125	286.86472	-914.31995	-497.54587	79.14767	-962.54443	-546.94843	52.17270	-931.22650	-360.20483	31.71927	-995.75958	-344.25882	1671.91296																								 
73	0.720	-1035.25232	-229.15242	1632.13269	-904.20313	-253.72487	1624.35120	-1058.38086	-342.90280	1563.88538	-929.08508	-362.66263	1555.97729	-993.94037	-361.50293	1411.57434	-988.54254	-403.28415	1104.11499	-997.54211	-237.59406	1338.28821	-1004.67590	-196.72710	1170.56482	-889.65466	-407.17575	1240.96924	-1151.59778	-294.07455	1375.86084	-1223.18164	-328.10910	1180.11255	-1236.83630	-335.83640	1057.26758	-1241.19897	-322.10419	927.47638	-1215.98706	-309.01044	808.17999	-1262.39648	-339.48428	815.85510	-1259.11682	-326.01382	733.48682	-836.60608	-276.14014	1364.02014	-758.58588	-251.82306	1146.61121	-744.35156	-221.72617	1038.11902	-744.29895	-178.98126	907.98071	-783.32159	-132.34265	820.84723	-737.60828	-159.21228	809.77051	-750.21527	-123.16280	744.54730	-1109.98462	-249.47571	934.25116	-875.10669	-244.90147	932.78979	-1060.30042	-411.25955	957.81885	-910.66608	-404.12445	972.75354	-1162.05505	-221.77034	643.85767	-1131.00659	-150.38344	480.82504	-1125.87708	-205.34792	289.09943	-1080.23584	-243.05531	85.17336	-1041.26440	-287.66946	53.89078	-1059.57300	-102.95066	38.51711	-835.21246	-334.49799	642.81250	-872.54218	-353.37918	465.37189	-867.26880	-429.62476	287.27252	-914.62878	-496.71481	80.33312	-962.58911	-546.53668	53.91854	-931.37592	-360.19498	31.57463	-997.26367	-330.81860	1670.80176																								 
74	0.730	-1036.63684	-215.65053	1630.48010	-905.56976	-240.41232	1622.86890	-1059.69775	-329.49866	1562.35681	-930.34125	-349.41150	1554.77515	-995.07770	-348.26892	1410.13599	-989.41132	-390.36771	1102.56628	-998.17865	-224.41025	1336.71387	-1004.82343	-183.79103	1168.93958	-890.64740	-394.43964	1239.66968	-1152.66956	-280.52313	1373.93311	-1224.25342	-316.09637	1178.19568	-1237.94348	-325.93771	1055.54102	-1243.09033	-316.62881	925.28357	-1218.99304	-308.42242	805.12354	-1265.21924	-338.19455	814.46185	-1262.14063	-328.42377	731.43811	-837.38831	-263.51749	1362.81824	-758.71826	-237.77521	1146.03918	-743.70917	-206.45175	1038.16174	-743.85614	-160.32813	909.24133	-782.77954	-110.68526	824.05255	-737.66461	-138.02654	811.53748	-749.99109	-99.53495	747.93805	-1110.05518	-235.62962	932.66370	-874.86847	-232.56056	931.07532	-1061.33398	-397.95132	955.89063	-911.64093	-391.80820	970.93726	-1162.77832	-206.57388	642.94958	-1130.83459	-134.55644	480.52499	-1127.47559	-178.79396	286.44397	-1083.76575	-203.48169	79.63668	-1044.77332	-246.63184	46.63528	-1060.50073	-61.21808	39.48138	-835.44208	-325.43701	641.95923	-872.56641	-346.89914	464.69452	-867.49420	-425.72931	287.67062	-914.77051	-496.20953	81.87392	-962.93555	-546.22766	56.04158	-931.33667	-360.08527	31.53474	-998.87463	-317.25510	1669.36218																								 
75	0.740	-1037.91711	-202.15569	1628.68030	-906.92035	-227.09221	1621.55396	-1061.04590	-316.01971	1560.70850	-931.68890	-336.11786	1553.48730	-996.28326	-334.89496	1408.62756	-990.41223	-377.34991	1100.96362	-998.84637	-211.21802	1335.04053	-1004.97461	-170.64525	1167.26270	-891.80237	-381.74265	1238.27124	-1153.59387	-266.79483	1371.78027	-1224.86377	-304.23520	1176.21643	-1239.09985	-315.74045	1053.81006	-1245.07813	-310.66434	923.32867	-1221.55579	-306.56467	802.84406	-1267.84216	-336.28784	813.25659	-1265.14697	-330.09131	729.91614	-838.15814	-250.89174	1361.59985	-758.35425	-224.18355	1145.43372	-743.17633	-191.44861	1038.18726	-743.52509	-142.07375	910.56543	-782.25842	-89.71344	827.12518	-737.84668	-117.35438	813.40637	-749.62543	-76.43306	751.48480	-1110.10315	-221.64679	931.01044	-874.37555	-220.58289	929.23975	-1062.50183	-384.38745	953.87585	-912.90436	-379.19714	968.80530	-1163.50208	-191.87984	641.85559	-1130.64441	-119.36747	479.92487	-1129.18567	-153.39156	284.28931	-1087.29163	-164.65642	75.93287	-1048.67493	-206.17575	40.66405	-1061.93262	-20.88745	40.86389	-835.73285	-316.06705	641.08569	-872.56525	-339.72870	463.87067	-867.73926	-421.47275	288.14761	-914.99622	-495.48096	83.43446	-963.52191	-545.45593	58.19391	-931.18011	-359.99487	31.57275	-1000.55286	-303.68106	1668.01367																								 
